<svg version="1" viewBox="110.622 52.08 530.985 458.304" xmlns="http://www.w3.org/2000/svg" style="max-height: 500px" width="531" height="458.3"><defs><clipPath id="prefix__b"><path d="M 345 42 h 180.4 v 431.2 H 345 z m 0 0"/></clipPath><clipPath id="prefix__c"><path d="M 0.1 69 H 189 v 404.2 H 0.1 z m 0 0"/></clipPath><clipPath id="prefix__d"><path d="M 479 391 h 46.4 v 63 H 479 z m 0 0"/></clipPath><clipPath id="prefix__e"><path d="M 1 0.2 h 63 V 47 H 1 z m 0 0"/></clipPath><clipPath id="prefix__f"><path d="M 0.1 0.2 H 324 V 174 H 0.1 z m 0 0"/></clipPath><clipPath id="prefix__g"><path d="M 139 0.2 h 386 V 224 H 139 z m 0 0"/></clipPath><clipPath id="prefix__h"><path d="M 213.4 58.1 h 31.7 v 33.4 h -31.7 z m 0 0"/></clipPath><clipPath id="prefix__i"><path d="M 229.2 58.1 c -8.8 0 -15.8 7.5 -15.8 16.7 s 7.1 16.7 15.8 16.7 c 8.8 0 15.8 -7.5 15.8 -16.7 s -7.1 -16.7 -15.8 -16.7 z m 0 0"/></clipPath><clipPath id="prefix__k"><path d="M 0.4 0.1 h 31.7 V 33.5 H 0.4 z m 0 0"/></clipPath><clipPath id="prefix__l"><path d="M 16.2 0.1 C 7.4 0.1 0.4 7.6 0.4 16.8 s 7.1 16.7 15.8 16.7 c 8.8 0 15.8 -7.5 15.8 -16.7 S 24.9 0.1 16.2 0.1 z m 0 0"/></clipPath><clipPath id="prefix__j"><path d="M 0 0 h 33 v 34 H 0 z"/></clipPath><clipPath id="prefix__m"><path d="M 133 70 h 282 v 403.2 H 133 z m 0 0"/></clipPath><clipPath id="prefix__n"><path d="M 0 0 h 282 v 404 H 0 z"/></clipPath><clipPath id="prefix__a"><path d="M 0 0 h 526 v 474 H 0 z"/></clipPath></defs><g clip-path="url(#prefix__a)" transform="matrix(1,0,0,1,112,53)"><g clip-path="url(#prefix__b)"><path stroke-width="15.4134" stroke="#0a66c2" d="M 474 422.3 L 432.7 130.2" fill="none"/></g><g clip-path="url(#prefix__c)"><path stroke-width="15.4134" stroke="#ff6d29" d="M 100.9 156.6 L 32.3 422.3" fill="none"/></g><path stroke-width="15.4134" stroke="#ff6d29" d="M 124.2 158.6 l -14.7 -35.6 l -30.1 24.1 z m 0 0" stroke-linejoin="round" fill="#ff6d29" stroke-linecap="round"/><path stroke-width="15.4134" stroke="#ffd646" d="M 482.9 422.3 H 31.6" fill="none"/><path d="M 486.8 445.4 l 30.8 -23.1 l -30.8 -23.1 z m 0 0" fill="#ffd646"/><g clip-path="url(#prefix__d)"><path stroke-width="15.4134" stroke="#ffd646" d="M 486.8 445.4 l 30.8 -23.1 l -30.8 -23.1 z m 0 0" stroke-linejoin="round" fill="none" stroke-linecap="round"/></g><path stroke-width="15.4134" stroke="#0a66c2" d="M 32.3 42.6 v 387.6" fill="none"/><path d="M 55.4 38.8 L 32.3 8 L 9.1 38.8 z m 0 0" fill="#0a66c2"/><g clip-path="url(#prefix__e)"><path stroke-width="15.4134" stroke="#0a66c2" d="M 55.4 38.8 L 32.3 8 L 9.1 38.8 z m 0 0" stroke-linejoin="round" fill="none" stroke-linecap="round"/></g><g clip-path="url(#prefix__f)"><path stroke-width="15.4134" stroke="#0a66c2" d="M 236.7 74.8 L 31.6 85.9" fill="none"/></g><g clip-path="url(#prefix__g)"><path stroke-width="15.4134" stroke="#0a66c2" d="M 437.2 136 L 226.6 74.8" fill="none"/></g><g clip-path="url(#prefix__h)"><g clip-path="url(#prefix__i)"><g clip-path="url(#prefix__j)" transform="translate(213,58)"><g clip-path="url(#prefix__k)"><g clip-path="url(#prefix__l)"><path d="M 0.4 0.1 h 31.7 v 33.4 H 0.4 z m 0 0" fill="#ff6d29"/></g></g></g></g></g><g clip-path="url(#prefix__m)"><g clip-path="url(#prefix__n)" fill="#0a66c2" transform="translate(133,70)"><path d="M 43.9 124.2 c -8.6 0 -15.7 -2.5 -21.1 -7.6 c -5.5 -5.1 -8.2 -11.4 -8.2 -18.8 c 0 -7.7 2.7 -14 8.2 -19.1 c 5.5 -5.1 12.5 -7.6 21.1 -7.6 c 8.4 0 15.4 2.5 20.8 7.6 c 5.5 5.1 8.2 11.4 8.2 19.1 c 0 7.5 -2.7 13.8 -8.2 18.8 c -5.5 5.1 -12.4 7.6 -20.8 7.6 z m 24.4 16.7 V 301.3 H 19.2 V 140.8 z m 0 0 M 201.8 139.1 c 18.8 0 33.8 6.1 45 18.3 c 11.2 12.2 16.8 28.9 16.8 50.2 v 93.7 h -48.9 v -87.1 c 0 -10.7 -2.8 -19.1 -8.3 -25 c -5.6 -5.9 -13 -8.9 -22.4 -8.9 c -9.4 0 -16.9 3 -22.4 8.9 c -5.6 5.9 -8.3 14.3 -8.3 25 v 87.1 h -49.2 V 140.8 h 49.2 v 21.3 c 5 -7.1 11.7 -12.7 20.1 -16.8 c 8.4 -4.1 17.9 -6.2 28.5 -6.2 z m 0 0"/></g></g></g></svg>