<svg version="1.0" viewBox="110.362 50.518 529.643 460.827" xmlns="http://www.w3.org/2000/svg" style="max-height:500px" width="529.643" height="460.827"><defs><clipPath id="prefix__b"><path d="M133 70h282v403.23H133zm0 0"/></clipPath><clipPath id="prefix__c"><path d="M0 0h282v404H0z"/></clipPath><clipPath id="prefix__d"><path d="M345 42h180.41v431.23H345zm0 0"/></clipPath><clipPath id="prefix__e"><path d="M.137 69H189v404.23H.137zm0 0"/></clipPath><clipPath id="prefix__f"><path d="M479 391h46.41v63H479zm0 0"/></clipPath><clipPath id="prefix__g"><path d="M1 .2h63V47H1zm0 0"/></clipPath><clipPath id="prefix__h"><path d="M.137.2H324V174H.137zm0 0"/></clipPath><clipPath id="prefix__i"><path d="M139 .2h386V224H139zm0 0"/></clipPath><clipPath id="prefix__j"><path d="M213.352 58.086h31.691v33.422h-31.691zm0 0"/></clipPath><clipPath id="prefix__k"><path d="M229.2 58.086c-8.755 0-15.848 7.48-15.848 16.707s7.093 16.703 15.847 16.703c8.75 0 15.844-7.476 15.844-16.703s-7.094-16.707-15.844-16.707zm0 0"/></clipPath><clipPath id="prefix__m"><path d="M.352.086h31.691V33.5H.352zm0 0"/></clipPath><clipPath id="prefix__n"><path d="M16.2.086C7.444.086.351 7.566.351 16.793s7.093 16.703 15.847 16.703c8.75 0 15.844-7.476 15.844-16.703S24.949.086 16.199.086zm0 0"/></clipPath><clipPath id="prefix__l"><path d="M0 0h33v34H0z"/></clipPath><clipPath id="prefix__a"><path d="M0 0h526v474H0z"/></clipPath></defs><g clip-path="url(#prefix__a)" transform="translate(112 53)"><g clip-path="url(#prefix__b)"><g clip-path="url(#prefix__c)" fill="#fff" transform="translate(133 70)"><path d="M43.933 124.172c-8.625 0-15.672-2.536-21.14-7.61-5.462-5.082-8.188-11.363-8.188-18.843 0-7.665 2.726-14.036 8.187-19.11 5.469-5.082 12.516-7.625 21.14-7.625 8.438 0 15.384 2.543 20.844 7.625 5.47 5.074 8.204 11.445 8.204 19.11 0 7.48-2.735 13.761-8.204 18.843-5.46 5.074-12.406 7.61-20.843 7.61zm24.437 16.672V301.28H19.214V140.844zm0 0M201.774 139.125c18.789 0 33.789 6.09 45 18.265 11.207 12.168 16.812 28.887 16.812 50.157v93.734h-48.875v-87.125c0-10.727-2.781-19.062-8.344-25-5.554-5.945-13.027-8.922-22.422-8.922-9.386 0-16.859 2.977-22.421 8.922-5.563 5.938-8.344 14.273-8.344 25v87.125h-49.156V140.844h49.156v21.28c4.988-7.093 11.695-12.695 20.125-16.812 8.437-4.125 17.926-6.187 28.469-6.187zm0 0"/></g></g><g clip-path="url(#prefix__d)"><path stroke-width="15.4134" stroke="#fff" d="M474.047 422.305L432.73 130.172" fill="none"/></g><g clip-path="url(#prefix__e)"><path stroke-width="15.4134" stroke="#b4b4b4" d="M100.879 156.59L32.266 422.316" fill="none"/></g><path stroke-width="15.4134" stroke="#b4b4b4" d="M124.227 158.64l-14.676-35.628-30.094 24.07zm0 0" stroke-linejoin="round" fill="#b4b4b4" stroke-linecap="round"/><path stroke-width="15.4134" stroke="#fff" d="M482.93 422.313H31.559" fill="none"/><path d="M486.785 445.43l30.828-23.118-30.828-23.12zm0 0" fill="#fff"/><g clip-path="url(#prefix__f)"><path stroke-width="15.4134" stroke="#fff" d="M486.785 445.43l30.828-23.117-30.828-23.122zm0 0" stroke-linejoin="round" fill="none" stroke-linecap="round"/></g><path stroke-width="15.4134" stroke="#fff" d="M32.262 42.629v387.566" fill="none"/><path d="M55.383 38.773L32.262 7.95 9.14 38.773zm0 0" fill="#fff"/><g clip-path="url(#prefix__g)"><path stroke-width="15.4134" stroke="#fff" d="M55.383 38.773L32.262 7.95 9.14 38.773zm0 0" stroke-linejoin="round" fill="none" stroke-linecap="round"/></g><g clip-path="url(#prefix__h)"><path stroke-width="15.4134" stroke="#fff" d="M236.691 74.793L31.56 85.895" fill="none"/></g><g clip-path="url(#prefix__i)"><path stroke-width="15.4134" stroke="#fff" d="M437.227 135.957L226.574 74.789" fill="none"/></g><g clip-path="url(#prefix__j)"><g clip-path="url(#prefix__k)"><g clip-path="url(#prefix__l)" transform="translate(213 58)"><g clip-path="url(#prefix__m)"><g clip-path="url(#prefix__n)"><path d="M.352.086h31.691v33.422H.352zm0 0" fill="#b4b4b4"/></g></g></g></g></g></g></svg>